<svg id="logosandtypes_com" xmlns="http://www.w3.org/2000/svg" viewBox="0 0 150 150.2"><style>.st2{fill:#fc0}</style><g id="Layer_3_1_"><g id="Layer_2_1_"><path id="Layer_3" d="M0 .2h150v150H0V.2z" fill="none"/></g></g><g id="bendigo_bank"><path id="bendigo_bank_shape2" d="M74.8 137.3c34.8 0 63-28.2 63-63s-28.2-63-63-63-63 28.2-63 63 28.2 63 63 63" fill="#903"/><g id="bendigo_bank_shapes1"><path class="st2" d="M89.3 73.6c10-.2 17.9-8.5 17.7-18.5-.2-9.8-8.1-17.6-17.9-17.7h-42l27 36.2-27 36.1h42c10-.1 18-8.3 17.8-18.2-.1-9.8-7.9-17.7-17.6-17.9z"/><path class="st2" d="M47.1 44.8V52l16.3 21.6-16.3 21.6v7.3l21.7-28.9z"/><path class="st2" d="M47.1 59.1v7.3l5.5 7.2-5.5 7.2V88L58 73.6z"/></g></g></svg>