<svg clip-rule="evenodd" fill-rule="evenodd" stroke-linejoin="round" stroke-miterlimit="2" viewBox="0 0 560 400" xmlns="http://www.w3.org/2000/svg" xmlns:xlink="http://www.w3.org/1999/xlink"><radialGradient id="a" cx="124.019" cy="166.205" gradientUnits="userSpaceOnUse" r="152.674"><stop offset="0" stop-color="#de1f26"/><stop offset=".49" stop-color="#de1f26"/><stop offset=".74" stop-color="#e84b4f"/><stop offset="1" stop-color="#f27778"/></radialGradient><g fill-rule="nonzero" transform="matrix(.749109 0 0 .749109 94.7229 125.089)"><path d="m123.784 8.165-31.386 37.797-43.872-20.923c-1.012 0-2.024-1.013-3.037 0-1.012 0-1.012 1.012 0 3.037l10.125 48.26-43.872 20.924c-1.013 0-2.025 1.012-2.025 2.025 0 1.012 1.012 2.024 2.025 2.024l43.872 21.936-10.462 48.26v3.038h3.037l43.872-20.924 30.373 38.81c1.012 1.013 2.025 2.025 3.037 1.013 1.012 0 1.012-1.013 2.025-2.025l11.474-47.248h49.608c1.013 0 2.025 0 3.038-1.013 0-1.012 0-2.025-1.013-3.037l-30.373-38.81 31.723-38.81c1.012-1.012 1.012-2.025 1.012-3.037 0-1.013-1.012-1.013-3.037-1.013h-12.487c-1.012 0-2.025 0-2.025 1.013l-46.572 49.272h-1.012v-1.013c1.012-1.012 26.323-32.398 39.822-48.26v-1.012c0-1.013 0-1.013-1.012-1.013h-15.862c-1.012 0-3.037 1.013-3.037 2.025-7.425 8.437-45.224 48.26-46.236 48.26h-.675v-1.012l38.81-47.248c1.012-1.013 1.012-2.025 1.012-3.037 0 0-10.462-47.248-10.462-48.26 0-1.013-1.012-2.025-2.025-2.025-3.374 1.012-4.387 1.012-4.387 2.025z" fill="#a91f23"/><path d="m41.1 104.348c-11.474 0-21.936-2.025-31.386-6.412 0 0 1.013 0 1.013-1.012l43.872-20.924-10.462-48.26v-3.037h3.037l43.872 20.923 31.386-37.797c1.012-1.013 2.025-1.013 2.025-1.013 0 4.05 1.012 7.425 1.012 11.475 1.35 47.584-37.46 86.056-84.368 86.056zm119.468-41.848c1.012-1.012 2.025-3.037 3.037-4.05h-14.511c-1.013 0-2.025 1.013-3.038 1.013 0 2.025 0 5.399 2.025 6.412 2.025 3.037 8.1 1.012 12.487-3.375zm14.512-5.062c-1.013 0-2.025 0-2.025 1.012l-1.013 1.013c0 2.025 1.013 3.037 2.025 4.049 3.037 3.038 9.449 1.013 12.487-3.037 1.012-1.012 1.012-2.025 2.025-3.037z" fill="#ec2024"/><path d="m183.516 61.488h-8.437c-2.025 0-3.037 1.012-4.049 2.025-15.862 16.874-41.848 43.872-42.86 43.872-3.038 3.037-5.4 1.012-2.025-2.025 1.012-1.012 21.936-26.323 34.423-41.848 0-1.012 1.012-2.025 0-2.025h-12.487c-1.013 0-2.025 0-3.038 1.013-15.861 16.874-42.86 45.224-43.872 45.224-3.037 3.037-5.399 1.012-2.024-2.025 1.012-1.013 23.96-29.361 35.772-45.224 1.013-1.013 1.013-2.025 1.013-4.05l-10.125-42.184c0-1.012-1.012-2.025-2.024 0l-28.348 34.423c-1.013 1.012-3.038 2.025-4.05 1.012l-39.822-19.911c-1.013 0-2.025 0-2.025 1.013l9.449 43.872c0 1.012 0 3.037-2.025 4.049l-40.16 19.574c-1.012 0-1.012 2.025 0 2.025l39.822 19.911c1.013 0 2.025 2.025 2.025 4.049l-10.462 43.196c0 1.013 0 2.025 2.025 1.013l40.836-18.899c1.013 0 3.037 0 4.05 1.013l27.335 34.422c1.013 1.013 2.025 1.013 2.025 0l10.462-42.86c0-1.012 2.025-2.025 3.037-2.025h43.872c1.013 0 2.025-1.012 1.013-2.024l-27.336-35.773c-1.012-1.013-1.012-3.038 0-4.05l28.348-34.423c1.688-1.35.675-2.362-.337-2.362z" fill="url(#a)"/><path d="m242.24 65.872c8.437-8.437 16.874-11.474 27.336-11.474 19.911 0 31.385 11.474 31.385 34.422v53.32h-23.961v-49.272c0-12.486-4.049-18.898-12.486-18.898-7.425 0-11.475 3.037-18.899 10.462v57.708h-23.961v-70.196c-1.012 0-7.424-1.013-7.424-1.013v-13.499l26.323-1.012c.675 0 1.687 6.074 1.687 9.449m208.56 8.099c-6.412 0-12.487 3.038-19.911 11.475v36.785c3.037 1.012 8.437 3.037 13.499 3.037 16.874 0 19.911-13.499 19.911-26.323 1.013-16.536-3.037-24.973-13.499-24.973m-18.899-50.284v39.822c7.425-6.412 14.512-9.449 23.961-9.449 20.924 0 34.423 15.862 34.423 41.848 0 30.373-16.874 48.26-46.236 48.26-10.462 0-23.961-2.025-35.773-5.4v-99.556c-1.012 0-8.437-1.012-8.437-1.012v-13.499zm-112.044 35.773c9.45-3.038 20.924-5.4 31.386-5.4 23.961 0 36.785 10.462 36.785 30.373v42.86c2.025 0 8.437 1.012 8.437 1.012v13.499l-26.323 1.013s-1.013-4.05-1.013-6.412c-7.424 6.412-15.861 9.449-25.31 9.449-18.899 0-30.373-10.462-30.373-27.336 0-18.898 14.511-28.348 42.86-28.348h8.437v-3.037c0-9.449-2.025-13.499-15.862-13.499-7.424 0-16.874 2.025-23.961 5.4h-2.025l-4.049-17.887 1.012-1.687m16.537 57.708c0 6.412 4.049 10.462 11.474 10.462 6.412 0 10.462-2.025 16.874-7.425v-13.499h-8.437c-17.549-1.012-19.911 5.062-19.911 10.462" fill="#231f20"/></g></svg>