<svg clip-rule="evenodd" fill-rule="evenodd" stroke-linejoin="round" stroke-miterlimit="2" viewBox="0 0 560 400" xmlns="http://www.w3.org/2000/svg"><g fill-rule="nonzero" transform="matrix(.470329 0 0 .470329 -896.613 -1469.26)"><path d="m1995.42 3453.46c5.4 2.28 8.94 16.22 8.94 16.22l33.49 116.48c3.86 14.58 16.07 22.25 29.74 22.25h73.42c-5.25-.94-11.02-16.43-11.02-16.43l-37.23-115.85c-5.36-17.7-14.39-22.67-28.08-22.67zm310.74 0c-13.72 0-22.59 4.97-27.87 22.67l-37.44 115.85s-5.71 15.49-11.02 16.43h73.42c13.74 0 25.83-7.67 29.74-22.25l33.49-116.48s3.65-13.94 9.15-16.22zm-161.4.83v154.12h81.74v-154.12z" fill="#ed1a3a"/><path d="m2627.51 3488.19-32.23 3.12v17.06h-13.11v17.06h13.11v52.62c0 8.28 1.56 14.48 4.36 18.72 2.97 4.36 7.16 7.71 12.9 10.19 5.73 2.58 13.88 3.74 24.34 3.74 4.43 0 10.42-.78 18.09-2.7v-16.64c-3.78.74-7.02 1.25-9.77 1.25-5.81 0-10.31-1.21-13.32-3.75-2.98-2.49-4.37-7.36-4.37-14.56v-48.87h25.38v-17.06h-25.38zm-206.95 17.89c-12.35 0-22.8 2.29-31.2 6.87-8.45 4.55-14.71 10.77-19.13 18.71-4.43 7.96-6.66 16.71-6.66 26 0 10.09 2.54 19.57 7.7 28.08 5.18 8.59 12.74 14.82 22.46 18.93 9.64 4.09 20.87 6.03 33.69 6.03 13.62 0 27.88-1.79 43.06-5.61v-18.72c-13.4 3.98-25.51 6.03-36.19 6.03-8.34 0-14.81-1.26-19.76-3.54-4.93-2.28-8.97-5.28-11.86-9.15s-4.64-9.24-5.41-16.01h73.63c-.28-22.15-4.84-37.19-13.93-45.35-9.02-8.13-21.21-12.27-36.4-12.27zm112.32 0c-16.59 0-28.93 2.81-37.03 8.53-8.1 5.59-12.06 12.8-12.06 21.42 0 7.26 2.48 12.99 7.91 17.47 5.3 4.62 13.73 8.91 24.95 12.69l10.82 3.54c5.51 1.77 9.5 3.77 12.27 5.61 2.65 1.99 3.95 4.4 3.95 7.28 0 3.26-1.83 5.75-5.41 7.91-3.55 2.13-8.42 3.33-14.35 3.33-11.27 0-24.8-2.84-40.76-8.32v19.76c14.66 3.62 29.03 5.4 43.05 5.4 16.46 0 28.98-3.21 37.65-9.56 8.61-6.34 12.89-13.62 12.89-22.05 0-6.42-2.37-11.98-7.07-16.64-4.79-4.62-14.77-9.36-30.16-14.35l-9.36-3.12c-5.58-1.73-9.41-3.41-11.44-5.2-2.18-1.87-3.32-4.11-3.32-6.45 0-3.05 1.64-5.41 4.99-7.28 3.29-1.91 8.32-2.91 14.97-2.91 8.56 0 19.3 1.73 32.24 5.2v-18.72c-13.43-2.39-25-3.54-34.73-3.54zm208.2 0c-8.78 0-16.49 1.85-22.88 5.41-6.4 3.64-11.54 8.84-15.6 16.02v-19.14h-32.24v136.44h32.24v-46.8c4.34 3.67 8.19 6.39 11.44 7.91 3.32 1.59 6.57 2.89 10.19 3.74 3.55.83 7.64 1.04 11.86 1.04 15.9 0 28.15-5.29 37.02-15.81 8.85-10.46 13.31-23.42 13.31-39.1 0-14.86-3.92-26.87-11.85-35.98-7.91-9.12-19.11-13.73-33.49-13.73zm105.66 0c-14.44 0-28.9 2.39-43.47 7.07v18.72c12.78-5.94 25.39-8.94 37.65-8.94 6.21 0 11.36 1.04 15.39 3.12 4.1 2.15 6.03 6.32 6.03 12.48v8.94h-8.53c-21.49 0-36.97 3.24-46.59 9.78-9.52 6.62-14.35 14.92-14.35 24.75 0 8.05 3.21 14.74 9.57 20.38 6.42 5.54 14.95 8.32 25.58 8.32 4.13 0 7.96-.44 11.65-1.25 3.65-.84 7.24-1.87 10.61-3.53 3.38-1.68 7.56-4.34 12.27-8.11h1.25c2.26 5.32 5.71 8.73 9.98 10.4 4.29 1.7 9.4 2.49 15.39 2.49 5.25 0 11.28-.72 18.1-2.49l-.42-15.19c-1.79.2-3.37.21-4.57.21-1.99 0-4.01-.63-6.04-1.87-1.98-1.16-2.91-4.31-2.91-9.78v-44.3c0-8.38-2.14-14.53-6.24-18.72-4.17-4.2-9.7-7.33-16.64-9.36-6.95-2-14.94-3.12-23.71-3.12zm127.09 0c-20.74 0-36.73 4.9-47.43 14.56-10.74 9.66-16.01 22.27-16.01 37.65 0 14.73 5.02 27.27 15.18 37.44 10.13 10.02 25.36 14.97 45.55 14.97 11.38 0 23.65-1.35 36.82-4.36v-18.72c-10.01 3.24-19.67 4.99-29.12 4.99-6.52 0-12.46-1.39-17.68-3.95-5.21-2.59-9.2-6.64-12.06-12.28-2.95-5.62-4.37-11.75-4.37-18.3 0-8.42 2.45-16.25 7.49-23.3 5.03-7.07 13-10.39 23.91-10.39 7.71 0 18.07 1.76 31 5.4v-19.76c-12.56-2.68-23.63-3.95-33.28-3.95zm-554.31 17.06c5.72 0 10.37 1.9 13.94 5.82 3.6 3.9 5.4 10.33 5.4 19.34h-42.01c1.01-8.26 3.51-14.41 7.49-18.71 4-4.3 9.04-6.45 15.18-6.45zm309.7 4.37c7.37 0 12.91 2.87 16.85 8.32 4 5.42 6.03 12.88 6.03 22.25 0 9.18-2.08 17.19-6.24 24.34-4.16 7.08-10.36 10.6-18.92 10.6-4.01 0-8.01-.75-11.86-2.28-3.88-1.58-8.04-4.5-12.48-8.74v-39.31c3.92-4.7 8.07-8.35 12.69-11.03 4.66-2.72 9.38-4.15 13.93-4.15zm125.63 35.56h7.49v20.18c-3.92 3.01-7.78 5.15-11.65 6.65-3.86 1.58-7.7 2.5-11.44 2.5-4.16 0-7.68-1.31-10.81-3.74-3.01-2.45-4.58-5.51-4.58-9.36 0-4.67 2.62-8.56 7.7-11.65 5.11-3.07 12.84-4.58 23.29-4.58z" fill="#2d373c"/></g></svg>